<svg xmlns="http://www.w3.org/2000/svg" viewBox="0 0 20 20" fill="#55534E"><path d="m8.672 13.978 1.325 1.325L8.9 16.4a3.74 3.74 0 0 1-2.653 1.097 3.75 3.75 0 0 1-3.75-3.75c0-.96.365-1.919 1.097-2.653l3.125-3.125a3.74 3.74 0 0 1 2.653-1.097c.962 0 1.919.366 2.653 1.097l.44.44-1.324 1.325-.441-.44a1.87 1.87 0 0 0-1.325-.55c-.5 0-1.597.819-1.95 1.175l-2.5 2.5a1.876 1.876 0 0 0 2.65 2.65l1.097-1.097zM13.75 2.5c-.96 0-1.919.366-2.653 1.097L10 4.694l1.325 1.325 1.097-1.097a1.876 1.876 0 0 1 2.65 2.65l-3.125 3.125c-.353.353-.825.55-1.325.55s-.972-.194-1.325-.55l-.44-.44L7.53 11.58l.44.44a3.74 3.74 0 0 0 2.654 1.098c.963 0 1.919-.366 2.653-1.097l3.125-3.125A3.74 3.74 0 0 0 17.5 6.244a3.75 3.75 0 0 0-3.75-3.75z" fill="#55534E"></path></svg>